<?xml version="1.0" encoding="utf-8"?>
<!-- Generator: Adobe Illustrator 25.4.1, SVG Export Plug-In . SVG Version: 6.00 Build 0)  -->
<svg version="1.1" id="Layer_1" xmlns="http://www.w3.org/2000/svg" xmlns:xlink="http://www.w3.org/1999/xlink" x="0px" y="0px"
	 viewBox="0 0 40 40" style="enable-background:new 0 0 40 40;" xml:space="preserve">
<style type="text/css">
	.st0{fill:#B44949;}
	.st1{fill:#FFFFFF;}
</style>
<path class="st0" d="M20,0L20,0c11,0,20,9,20,20l0,0c0,11-9,20-20,20l0,0C9,40,0,31,0,20l0,0C0,9,9,0,20,0z"/>
<g>
	<path class="st1" d="M7.2,30L7,28.9c0.5-0.4,1-0.7,1.6-1.1c0.6-0.3,1.2-0.6,1.8-0.9V30H7.2z M8.7,30l9-22.2l3.7,0.6l-8,21.5H8.7V30
		z M12.2,30l0.1-2.7l4.7,0.8V30C17,30,12.2,30,12.2,30z M14,24.5v-3.2h11.4v3.2H14z M24.5,30L16.4,7.9l6.2-1.5L32.1,30H24.5z
		 M21.2,30L21,28.9c0.5-0.4,1-0.7,1.6-1.1c0.6-0.3,1.2-0.6,1.8-0.9l0.4,3.1H21.2z M28.8,30l0.1-2.7l4.7,0.8V30
		C33.6,30,28.8,30,28.8,30z"/>
</g>
</svg>
