<?xml version="1.0" encoding="utf-8"?>
<!-- Generator: Adobe Illustrator 25.4.1, SVG Export Plug-In . SVG Version: 6.00 Build 0)  -->
<svg version="1.1" id="Layer_1" xmlns="http://www.w3.org/2000/svg" xmlns:xlink="http://www.w3.org/1999/xlink" x="0px" y="0px"
	 viewBox="0 0 220 78" style="enable-background:new 0 0 220 78;" xml:space="preserve">
<style type="text/css">
	.st0{fill:none;stroke:#B44949;stroke-width:3;stroke-linecap:round;}
	.st1{fill:#CC5C5C;}
</style>
<path class="st0" d="M19.8-67.1c-1.2-13.6,1.1-32.1,17.4-35.4c12.3-2.5,32.1-2.1,37.9,11.3c3.8,8.9,4,20-2.1,27.8
	c-3.2,4.1-8.2,6.9-9.7,0.1c-5-22.7,5-44.5,21.9-59.8c11.1-10.1,29.9-16,39.8-0.4c6.1,9.6,6.8,23.1,6.6,34.1
	c-0.2,8.1-0.4,17.3-5.7,23.9c-3.5,4.3-6.8,6.3-10.8,1.1c-6.1-7.9-3.8-19.2-2.3-28.2c2.4-15,7.2-23.2,21.2-29.6
	c32.2-14.6,74.4,2.9,101.7,20.7"/>
<g>
	<path class="st1" d="M122.6-112.1c0,2.6-2.1,4.6-4.6,4.6c-2.6,0-4.6-2.1-4.6-4.6c0-2.6,2.1-4.6,4.6-4.6
		C120.6-116.7,122.6-114.7,122.6-112.1z"/>
	<path class="st1" d="M106.6-95.7c0,2.6-2.1,4.6-4.6,4.6c-2.6,0-4.6-2.1-4.6-4.6c0-2.6,2.1-4.6,4.6-4.6
		C104.6-100.4,106.6-98.3,106.6-95.7z"/>
	<path class="st1" d="M139-95.7c0,2.6-2.1,4.6-4.6,4.6c-2.6,0-4.6-2.1-4.6-4.6c0-2.6,2.1-4.6,4.6-4.6C136.9-100.4,139-98.3,139-95.7
		z"/>
	<path class="st1" d="M90.3-78.4c0,2.6-2.1,4.6-4.6,4.6c-2.6,0-4.6-2.1-4.6-4.6c0-2.6,2.1-4.6,4.6-4.6C88.2-83,90.3-80.9,90.3-78.4z
		"/>
	<path class="st1" d="M122.6-78.4c0,2.6-2.1,4.6-4.6,4.6c-2.6,0-4.6-2.1-4.6-4.6c0-2.6,2.1-4.6,4.6-4.6
		C120.6-83,122.6-80.9,122.6-78.4z"/>
	<path class="st1" d="M155-78.4c0,2.6-2.1,4.6-4.6,4.6c-2.6,0-4.6-2.1-4.6-4.6c0-2.6,2.1-4.6,4.6-4.6C152.9-83,155-80.9,155-78.4z"
		/>
	<path class="st1" d="M74.3-62c0,2.6-2.1,4.6-4.6,4.6c-2.6,0-4.6-2.1-4.6-4.6c0-2.6,2.1-4.6,4.6-4.6C72.2-66.7,74.3-64.6,74.3-62z"
		/>
	<circle class="st1" cx="102" cy="-62" r="4.6"/>
	<circle class="st1" cx="134.3" cy="-62" r="4.6"/>
	<circle class="st1" cx="166.7" cy="-62" r="4.6"/>
	<path class="st1" d="M58-44.6c0,2.6-2.1,4.6-4.6,4.6c-2.6,0-4.6-2.1-4.6-4.6c0-2.6,2.1-4.6,4.6-4.6C55.9-49.3,58-47.2,58-44.6z"/>
	<path class="st1" d="M90.3-44.6c0,2.6-2.1,4.6-4.6,4.6C83.1-40,81-42,81-44.6c0-2.6,2.1-4.6,4.6-4.6C88.2-49.3,90.3-47.2,90.3-44.6
		z"/>
	<path class="st1" d="M122.6-44.6c0,2.6-2.1,4.6-4.6,4.6c-2.6,0-4.6-2.1-4.6-4.6c0-2.6,2.1-4.6,4.6-4.6
		C120.6-49.3,122.6-47.2,122.6-44.6z"/>
	<path class="st1" d="M155-44.6c0,2.6-2.1,4.6-4.6,4.6c-2.6,0-4.6-2.1-4.6-4.6c0-2.6,2.1-4.6,4.6-4.6C152.9-49.3,155-47.2,155-44.6z
		"/>
	<path class="st1" d="M187.3-44.6c0,2.6-2.1,4.6-4.6,4.6S178-42,178-44.6c0-2.6,2.1-4.6,4.6-4.6S187.3-47.2,187.3-44.6z"/>
	<path class="st1" d="M42-28.3c0,2.6-2.1,4.6-4.6,4.6c-2.6,0-4.6-2.1-4.6-4.6c0-2.6,2.1-4.6,4.6-4.6C39.9-32.9,42-30.8,42-28.3z"/>
	<path class="st1" d="M74.3-28.3c0,2.6-2.1,4.6-4.6,4.6c-2.6,0-4.6-2.1-4.6-4.6c0-2.6,2.1-4.6,4.6-4.6
		C72.2-32.9,74.3-30.8,74.3-28.3z"/>
	<path class="st1" d="M106.6-28.3c0,2.6-2.1,4.6-4.6,4.6c-2.6,0-4.6-2.1-4.6-4.6c0-2.6,2.1-4.6,4.6-4.6
		C104.6-32.9,106.6-30.8,106.6-28.3z"/>
	<path class="st1" d="M139-28.3c0,2.6-2.1,4.6-4.6,4.6c-2.6,0-4.6-2.1-4.6-4.6c0-2.6,2.1-4.6,4.6-4.6C136.9-32.9,139-30.8,139-28.3z
		"/>
	<path class="st1" d="M171.3-28.3c0,2.6-2.1,4.6-4.6,4.6c-2.6,0-4.6-2.1-4.6-4.6c0-2.6,2.1-4.6,4.6-4.6
		C169.2-32.9,171.3-30.8,171.3-28.3z"/>
	<path class="st1" d="M203.7-28.3c0,2.6-2.1,4.6-4.6,4.6c-2.6,0-4.6-2.1-4.6-4.6c0-2.6,2.1-4.6,4.6-4.6
		C201.6-32.9,203.7-30.8,203.7-28.3z"/>
	<path class="st1" d="M25.6-10.9c0,2.6-2.1,4.6-4.6,4.6c-2.6,0-4.6-2.1-4.6-4.6c0-2.6,2.1-4.6,4.6-4.6
		C23.6-15.5,25.6-13.4,25.6-10.9z"/>
	<circle class="st1" cx="53.3" cy="-10.9" r="4.6"/>
	<circle class="st1" cx="85.7" cy="-10.9" r="4.6"/>
	<path class="st1" d="M122.6-10.9c0,2.6-2.1,4.6-4.6,4.6c-2.6,0-4.6-2.1-4.6-4.6c0-2.6,2.1-4.6,4.6-4.6
		C120.6-15.5,122.6-13.4,122.6-10.9z"/>
	<path class="st1" d="M155-10.9c0,2.6-2.1,4.6-4.6,4.6c-2.6,0-4.6-2.1-4.6-4.6c0-2.6,2.1-4.6,4.6-4.6C152.9-15.5,155-13.4,155-10.9z
		"/>
	<path class="st1" d="M187.3-10.9c0,2.6-2.1,4.6-4.6,4.6s-4.6-2.1-4.6-4.6c0-2.6,2.1-4.6,4.6-4.6S187.3-13.4,187.3-10.9z"/>
	<path class="st1" d="M219.6-10.9c0,2.6-2.1,4.6-4.6,4.6c-2.6,0-4.6-2.1-4.6-4.6c0-2.6,2.1-4.6,4.6-4.6
		C217.6-15.5,219.6-13.4,219.6-10.9z"/>
	<path class="st1" d="M9.7,5.5c0,2.6-2.1,4.6-4.6,4.6c-2.6,0-4.6-2.1-4.6-4.6S2.4,0.8,5,0.8C7.6,0.8,9.7,2.9,9.7,5.5z"/>
	<path class="st1" d="M42,5.5c0,2.6-2.1,4.6-4.6,4.6c-2.6,0-4.6-2.1-4.6-4.6s2.1-4.6,4.6-4.6C39.9,0.8,42,2.9,42,5.5z"/>
	<path class="st1" d="M74.3,5.5c0,2.6-2.1,4.6-4.6,4.6C67.1,10.1,65,8,65,5.5s2.1-4.6,4.6-4.6C72.2,0.8,74.3,2.9,74.3,5.5z"/>
	<circle class="st1" cx="102" cy="5.5" r="4.6"/>
	<circle class="st1" cx="134.3" cy="5.5" r="4.6"/>
	<circle class="st1" cx="166.7" cy="5.5" r="4.6"/>
	<path class="st1" d="M203.7,5.5c0,2.6-2.1,4.6-4.6,4.6c-2.6,0-4.6-2.1-4.6-4.6s2.1-4.6,4.6-4.6C201.6,0.8,203.7,2.9,203.7,5.5z"/>
	<path class="st1" d="M236,5.5c0,2.6-2.1,4.6-4.6,4.6c-2.6,0-4.6-2.1-4.6-4.6s2.1-4.6,4.6-4.6C233.9,0.8,236,2.9,236,5.5z"/>
	<path class="st1" d="M-6.7,22.9c0,2.6-2.1,4.6-4.6,4.6c-2.6,0-4.6-2.1-4.6-4.6c0-2.6,2.1-4.6,4.6-4.6C-8.8,18.2-6.7,20.3-6.7,22.9z
		"/>
	<path class="st1" d="M25.6,22.9c0,2.6-2.1,4.6-4.6,4.6c-2.6,0-4.6-2.1-4.6-4.6c0-2.6,2.1-4.6,4.6-4.6
		C23.6,18.2,25.6,20.3,25.6,22.9z"/>
	<path class="st1" d="M58,22.9c0,2.6-2.1,4.6-4.6,4.6c-2.6,0-4.6-2.1-4.6-4.6c0-2.6,2.1-4.6,4.6-4.6C55.9,18.2,58,20.3,58,22.9z"/>
	<path class="st1" d="M90.3,22.9c0,2.6-2.1,4.6-4.6,4.6c-2.6,0-4.6-2.1-4.6-4.6c0-2.6,2.1-4.6,4.6-4.6
		C88.2,18.2,90.3,20.3,90.3,22.9z"/>
	<path class="st1" d="M122.6,22.9c0,2.6-2.1,4.6-4.6,4.6c-2.6,0-4.6-2.1-4.6-4.6c0-2.6,2.1-4.6,4.6-4.6
		C120.6,18.2,122.6,20.3,122.6,22.9z"/>
	<path class="st1" d="M155,22.9c0,2.6-2.1,4.6-4.6,4.6c-2.6,0-4.6-2.1-4.6-4.6c0-2.6,2.1-4.6,4.6-4.6C152.9,18.2,155,20.3,155,22.9z
		"/>
	<path class="st1" d="M187.3,22.9c0,2.6-2.1,4.6-4.6,4.6s-4.6-2.1-4.6-4.6c0-2.6,2.1-4.6,4.6-4.6S187.3,20.3,187.3,22.9z"/>
	<path class="st1" d="M219.6,22.9c0,2.6-2.1,4.6-4.6,4.6c-2.6,0-4.6-2.1-4.6-4.6c0-2.6,2.1-4.6,4.6-4.6
		C217.6,18.2,219.6,20.3,219.6,22.9z"/>
	<path class="st1" d="M252,22.9c0,2.6-2.1,4.6-4.6,4.6c-2.6,0-4.6-2.1-4.6-4.6c0-2.6,2.1-4.6,4.6-4.6C249.9,18.2,252,20.3,252,22.9z
		"/>
	<path class="st1" d="M-22.7,39.2c0,2.6-2.1,4.6-4.6,4.6c-2.6,0-4.6-2.1-4.6-4.6c0-2.6,2.1-4.6,4.6-4.6
		C-24.8,34.6-22.7,36.6-22.7,39.2z"/>
	<path class="st1" d="M9.7,39.2c0,2.6-2.1,4.6-4.6,4.6c-2.6,0-4.6-2.1-4.6-4.6c0-2.6,2.1-4.6,4.6-4.6C7.6,34.6,9.7,36.6,9.7,39.2z"
		/>
	<path class="st1" d="M42,39.2c0,2.6-2.1,4.6-4.6,4.6c-2.6,0-4.6-2.1-4.6-4.6c0-2.6,2.1-4.6,4.6-4.6C39.9,34.6,42,36.6,42,39.2z"/>
	<path class="st1" d="M74.3,39.2c0,2.6-2.1,4.6-4.6,4.6c-2.6,0-4.6-2.1-4.6-4.6c0-2.6,2.1-4.6,4.6-4.6
		C72.2,34.6,74.3,36.6,74.3,39.2z"/>
	<path class="st1" d="M106.6,39.2c0,2.6-2.1,4.6-4.6,4.6c-2.6,0-4.6-2.1-4.6-4.6c0-2.6,2.1-4.6,4.6-4.6
		C104.6,34.6,106.6,36.6,106.6,39.2z"/>
	<path class="st1" d="M139,39.2c0,2.6-2.1,4.6-4.6,4.6c-2.6,0-4.6-2.1-4.6-4.6c0-2.6,2.1-4.6,4.6-4.6C136.9,34.6,139,36.6,139,39.2z
		"/>
	<path class="st1" d="M171.3,39.2c0,2.6-2.1,4.6-4.6,4.6c-2.6,0-4.6-2.1-4.6-4.6c0-2.6,2.1-4.6,4.6-4.6
		C169.2,34.6,171.3,36.6,171.3,39.2z"/>
	<path class="st1" d="M203.7,39.2c0,2.6-2.1,4.6-4.6,4.6c-2.6,0-4.6-2.1-4.6-4.6c0-2.6,2.1-4.6,4.6-4.6
		C201.6,34.6,203.7,36.6,203.7,39.2z"/>
	<path class="st1" d="M236,39.2c0,2.6-2.1,4.6-4.6,4.6c-2.6,0-4.6-2.1-4.6-4.6c0-2.6,2.1-4.6,4.6-4.6C233.9,34.6,236,36.6,236,39.2z
		"/>
	<path class="st1" d="M268.3,39.2c0,2.6-2.1,4.6-4.6,4.6c-2.6,0-4.6-2.1-4.6-4.6c0-2.6,2.1-4.6,4.6-4.6
		C266.2,34.6,268.3,36.6,268.3,39.2z"/>
	<path class="st1" d="M-39,56.6c0,2.6-2.1,4.6-4.6,4.6c-2.6,0-4.6-2.1-4.6-4.6s2.1-4.6,4.6-4.6C-41.1,52-39,54-39,56.6z"/>
	<path class="st1" d="M-6.7,56.6c0,2.6-2.1,4.6-4.6,4.6c-2.6,0-4.6-2.1-4.6-4.6s2.1-4.6,4.6-4.6C-8.8,52-6.7,54-6.7,56.6z"/>
	<path class="st1" d="M25.6,56.6c0,2.6-2.1,4.6-4.6,4.6c-2.6,0-4.6-2.1-4.6-4.6S18.4,52,21,52C23.6,52,25.6,54,25.6,56.6z"/>
	<path class="st1" d="M58,56.6c0,2.6-2.1,4.6-4.6,4.6c-2.6,0-4.6-2.1-4.6-4.6s2.1-4.6,4.6-4.6C55.9,52,58,54,58,56.6z"/>
	<path class="st1" d="M90.3,56.6c0,2.6-2.1,4.6-4.6,4.6c-2.6,0-4.6-2.1-4.6-4.6s2.1-4.6,4.6-4.6C88.2,52,90.3,54,90.3,56.6z"/>
	<path class="st1" d="M122.6,56.6c0,2.6-2.1,4.6-4.6,4.6c-2.6,0-4.6-2.1-4.6-4.6s2.1-4.6,4.6-4.6C120.6,52,122.6,54,122.6,56.6z"/>
	<path class="st1" d="M155,56.6c0,2.6-2.1,4.6-4.6,4.6c-2.6,0-4.6-2.1-4.6-4.6s2.1-4.6,4.6-4.6C152.9,52,155,54,155,56.6z"/>
	<path class="st1" d="M187.3,56.6c0,2.6-2.1,4.6-4.6,4.6s-4.6-2.1-4.6-4.6s2.1-4.6,4.6-4.6S187.3,54,187.3,56.6z"/>
	<path class="st1" d="M219.6,56.6c0,2.6-2.1,4.6-4.6,4.6c-2.6,0-4.6-2.1-4.6-4.6s2.1-4.6,4.6-4.6C217.6,52,219.6,54,219.6,56.6z"/>
	<path class="st1" d="M252,56.6c0,2.6-2.1,4.6-4.6,4.6c-2.6,0-4.6-2.1-4.6-4.6s2.1-4.6,4.6-4.6C249.9,52,252,54,252,56.6z"/>
	<path class="st1" d="M284.3,56.6c0,2.6-2.1,4.6-4.6,4.6c-2.6,0-4.6-2.1-4.6-4.6s2.1-4.6,4.6-4.6C282.2,52,284.3,54,284.3,56.6z"/>
	<circle class="st1" cx="-59.7" cy="73" r="4.6"/>
	<path class="st1" d="M-22.7,73c0,2.6-2.1,4.6-4.6,4.6c-2.6,0-4.6-2.1-4.6-4.6c0-2.6,2.1-4.6,4.6-4.6C-24.8,68.3-22.7,70.4-22.7,73z
		"/>
	<path class="st1" d="M9.7,73c0,2.6-2.1,4.6-4.6,4.6c-2.6,0-4.6-2.1-4.6-4.6c0-2.6,2.1-4.6,4.6-4.6C7.6,68.3,9.7,70.4,9.7,73z"/>
	<path class="st1" d="M42,73c0,2.6-2.1,4.6-4.6,4.6c-2.6,0-4.6-2.1-4.6-4.6c0-2.6,2.1-4.6,4.6-4.6C39.9,68.3,42,70.4,42,73z"/>
	<path class="st1" d="M74.3,73c0,2.6-2.1,4.6-4.6,4.6c-2.6,0-4.6-2.1-4.6-4.6c0-2.6,2.1-4.6,4.6-4.6C72.2,68.3,74.3,70.4,74.3,73z"
		/>
	<circle class="st1" cx="102" cy="73" r="4.6"/>
	<circle class="st1" cx="134.3" cy="73" r="4.6"/>
	<circle class="st1" cx="166.7" cy="73" r="4.6"/>
	<path class="st1" d="M203.7,73c0,2.6-2.1,4.6-4.6,4.6c-2.6,0-4.6-2.1-4.6-4.6c0-2.6,2.1-4.6,4.6-4.6
		C201.6,68.3,203.7,70.4,203.7,73z"/>
	<path class="st1" d="M236,73c0,2.6-2.1,4.6-4.6,4.6c-2.6,0-4.6-2.1-4.6-4.6c0-2.6,2.1-4.6,4.6-4.6C233.9,68.3,236,70.4,236,73z"/>
	<path class="st1" d="M268.3,73c0,2.6-2.1,4.6-4.6,4.6c-2.6,0-4.6-2.1-4.6-4.6c0-2.6,2.1-4.6,4.6-4.6
		C266.2,68.3,268.3,70.4,268.3,73z"/>
	<circle class="st1" cx="296" cy="73" r="4.6"/>
	<path class="st1" d="M-71.4,90.4c0,2.6-2.1,4.6-4.6,4.6c-2.6,0-4.6-2.1-4.6-4.6c0-2.6,2.1-4.6,4.6-4.6
		C-73.4,85.7-71.4,87.8-71.4,90.4z"/>
	<path class="st1" d="M-39,90.4c0,2.6-2.1,4.6-4.6,4.6c-2.6,0-4.6-2.1-4.6-4.6c0-2.6,2.1-4.6,4.6-4.6C-41.1,85.7-39,87.8-39,90.4z"
		/>
	<path class="st1" d="M-6.7,90.4c0,2.6-2.1,4.6-4.6,4.6c-2.6,0-4.6-2.1-4.6-4.6c0-2.6,2.1-4.6,4.6-4.6C-8.8,85.7-6.7,87.8-6.7,90.4z
		"/>
	<path class="st1" d="M25.6,90.4c0,2.6-2.1,4.6-4.6,4.6c-2.6,0-4.6-2.1-4.6-4.6c0-2.6,2.1-4.6,4.6-4.6
		C23.6,85.7,25.6,87.8,25.6,90.4z"/>
	<path class="st1" d="M58,90.4c0,2.6-2.1,4.6-4.6,4.6c-2.6,0-4.6-2.1-4.6-4.6c0-2.6,2.1-4.6,4.6-4.6C55.9,85.7,58,87.8,58,90.4z"/>
	<path class="st1" d="M90.3,90.4c0,2.6-2.1,4.6-4.6,4.6c-2.6,0-4.6-2.1-4.6-4.6c0-2.6,2.1-4.6,4.6-4.6
		C88.2,85.7,90.3,87.8,90.3,90.4z"/>
	<path class="st1" d="M122.6,90.4c0,2.6-2.1,4.6-4.6,4.6c-2.6,0-4.6-2.1-4.6-4.6c0-2.6,2.1-4.6,4.6-4.6
		C120.6,85.7,122.6,87.8,122.6,90.4z"/>
	<path class="st1" d="M155,90.4c0,2.6-2.1,4.6-4.6,4.6c-2.6,0-4.6-2.1-4.6-4.6c0-2.6,2.1-4.6,4.6-4.6C152.9,85.7,155,87.8,155,90.4z
		"/>
	<path class="st1" d="M187.3,90.4c0,2.6-2.1,4.6-4.6,4.6s-4.6-2.1-4.6-4.6c0-2.6,2.1-4.6,4.6-4.6S187.3,87.8,187.3,90.4z"/>
	<path class="st1" d="M219.6,90.4c0,2.6-2.1,4.6-4.6,4.6c-2.6,0-4.6-2.1-4.6-4.6c0-2.6,2.1-4.6,4.6-4.6
		C217.6,85.7,219.6,87.8,219.6,90.4z"/>
	<path class="st1" d="M252,90.4c0,2.6-2.1,4.6-4.6,4.6c-2.6,0-4.6-2.1-4.6-4.6c0-2.6,2.1-4.6,4.6-4.6C249.9,85.7,252,87.8,252,90.4z
		"/>
	<path class="st1" d="M284.3,90.4c0,2.6-2.1,4.6-4.6,4.6c-2.6,0-4.6-2.1-4.6-4.6c0-2.6,2.1-4.6,4.6-4.6
		C282.2,85.7,284.3,87.8,284.3,90.4z"/>
	<path class="st1" d="M316.6,90.4c0,2.6-2.1,4.6-4.6,4.6c-2.6,0-4.6-2.1-4.6-4.6c0-2.6,2.1-4.6,4.6-4.6
		C314.6,85.7,316.6,87.8,316.6,90.4z"/>
	<path class="st1" d="M-87.3,106.7c0,2.6-2.1,4.6-4.6,4.6c-2.6,0-4.6-2.1-4.6-4.6c0-2.6,2.1-4.6,4.6-4.6
		C-89.4,102.1-87.3,104.1-87.3,106.7z"/>
	<circle class="st1" cx="-59.7" cy="106.7" r="4.6"/>
	<path class="st1" d="M-22.7,106.7c0,2.6-2.1,4.6-4.6,4.6c-2.6,0-4.6-2.1-4.6-4.6c0-2.6,2.1-4.6,4.6-4.6
		C-24.8,102.1-22.7,104.1-22.7,106.7z"/>
	<path class="st1" d="M9.7,106.7c0,2.6-2.1,4.6-4.6,4.6c-2.6,0-4.6-2.1-4.6-4.6c0-2.6,2.1-4.6,4.6-4.6
		C7.6,102.1,9.7,104.1,9.7,106.7z"/>
	<path class="st1" d="M42,106.7c0,2.6-2.1,4.6-4.6,4.6c-2.6,0-4.6-2.1-4.6-4.6c0-2.6,2.1-4.6,4.6-4.6C39.9,102.1,42,104.1,42,106.7z
		"/>
	<path class="st1" d="M74.3,106.7c0,2.6-2.1,4.6-4.6,4.6c-2.6,0-4.6-2.1-4.6-4.6c0-2.6,2.1-4.6,4.6-4.6
		C72.2,102.1,74.3,104.1,74.3,106.7z"/>
	<circle class="st1" cx="102" cy="106.7" r="4.6"/>
	<circle class="st1" cx="134.3" cy="106.7" r="4.6"/>
	<circle class="st1" cx="166.7" cy="106.7" r="4.6"/>
	<path class="st1" d="M203.7,106.7c0,2.6-2.1,4.6-4.6,4.6c-2.6,0-4.6-2.1-4.6-4.6c0-2.6,2.1-4.6,4.6-4.6
		C201.6,102.1,203.7,104.1,203.7,106.7z"/>
	<path class="st1" d="M236,106.7c0,2.6-2.1,4.6-4.6,4.6c-2.6,0-4.6-2.1-4.6-4.6c0-2.6,2.1-4.6,4.6-4.6
		C233.9,102.1,236,104.1,236,106.7z"/>
	<path class="st1" d="M268.3,106.7c0,2.6-2.1,4.6-4.6,4.6c-2.6,0-4.6-2.1-4.6-4.6c0-2.6,2.1-4.6,4.6-4.6
		C266.2,102.1,268.3,104.1,268.3,106.7z"/>
	<circle class="st1" cx="296" cy="106.7" r="4.6"/>
	<path class="st1" d="M333,106.7c0,2.6-2.1,4.6-4.6,4.6c-2.6,0-4.6-2.1-4.6-4.6c0-2.6,2.1-4.6,4.6-4.6
		C330.9,102.1,333,104.1,333,106.7z"/>
</g>
</svg>
