<?xml version="1.0" encoding="utf-8"?>
<!-- Generator: Adobe Illustrator 25.4.1, SVG Export Plug-In . SVG Version: 6.00 Build 0)  -->
<svg version="1.1" id="Layer_1" xmlns="http://www.w3.org/2000/svg" xmlns:xlink="http://www.w3.org/1999/xlink" x="0px" y="0px"
	 viewBox="0 0 40 40" style="enable-background:new 0 0 40 40;" xml:space="preserve">
<style type="text/css">
	.st0{fill:#FFFFFF;}
	.st1{fill:#B44949;}
</style>
<path class="st0" d="M20,0L20,0c11,0,20,9,20,20l0,0c0,11-9,20-20,20l0,0C9,40,0,31,0,20l0,0C0,9,9,0,20,0z"/>
<g>
	<path class="st1" d="M9.5,29.5l-0.2-0.9c0.4-0.3,0.8-0.6,1.3-0.9c0.5-0.3,0.9-0.5,1.5-0.8l0,2.5H9.5z M10.7,29.5l7.2-17.8l3,0.5
		l-6.4,17.3H10.7z M13.5,29.5l0.1-2.2l3.8,0.7l0,1.5H13.5z M14.9,25v-2.5h9.2V25H14.9z M23.4,29.5l-6.6-17.8l5-1.2l7.6,19H23.4z
		 M20.7,29.5l-0.2-0.9c0.4-0.3,0.8-0.6,1.3-0.9c0.5-0.3,0.9-0.5,1.5-0.8l0.3,2.5H20.7z M26.8,29.5l0.1-2.2l3.8,0.7l0,1.5H26.8z"/>
</g>
</svg>
