<?xml version="1.0" encoding="utf-8"?>
<!-- Generator: Adobe Illustrator 25.4.1, SVG Export Plug-In . SVG Version: 6.00 Build 0)  -->
<svg version="1.1" id="Layer_1" xmlns="http://www.w3.org/2000/svg" xmlns:xlink="http://www.w3.org/1999/xlink" x="0px" y="0px"
	 viewBox="0 0 140 40" style="enable-background:new 0 0 140 40;" xml:space="preserve">
<style type="text/css">
	.st0{clip-path:url(#SVGID_00000132807752101728753790000001697884980752522663_);}
	.st1{fill:#B44949;}
	.st2{fill:#FFFFFF;}
</style>
<g>
	<g>
		<defs>
			<rect id="SVGID_1_" width="140" height="40"/>
		</defs>
		<clipPath id="SVGID_00000065758926756163083250000015649454831671621768_">
			<use xlink:href="#SVGID_1_"  style="overflow:visible;"/>
		</clipPath>
		<g style="clip-path:url(#SVGID_00000065758926756163083250000015649454831671621768_);">
			<path class="st1" d="M20,0L20,0c11,0,20,9,20,20l0,0c0,11-9,20-20,20l0,0C9,40,0,31,0,20l0,0C0,9,9,0,20,0z"/>
		</g>
	</g>
</g>
<g>
	<path class="st2" d="M9.2,29.8L9,28.9c0.4-0.3,0.8-0.6,1.3-0.9s0.9-0.5,1.5-0.8v2.5L9.2,29.8L9.2,29.8z M10.4,29.8L17.6,12l3,0.5
		l-6.4,17.3H10.4z M13.2,29.8l0.1-2.2l3.8,0.7v1.5H13.2z M14.6,25.3v-2.5h9.2v2.5H14.6z M23.1,29.8L16.6,12l5-1.2l7.6,19H23.1z
		 M20.4,29.8l-0.2-0.9c0.4-0.3,0.8-0.6,1.3-0.9s0.9-0.5,1.5-0.8l0.3,2.5L20.4,29.8L20.4,29.8z M26.5,29.8l0.1-2.2l3.8,0.7v1.5H26.5z
		"/>
</g>
<g>
	<g>
		<path class="st2" d="M54.9,26.7l-4.6,0.5V13c0.4-0.2,0.8-0.4,1.1-0.6c0.6-0.3,0.9-0.6,1.4-0.9l-0.2-0.9h-2.3v-0.1h-4.3H44h-2.2
			v1.7l2.2,0.4v15.3c-0.4,0.2-0.8,0.4-1.1,0.6c-0.6,0.3-0.9,0.6-1.4,0.9l0.2,0.9H44h0.5h2.8v-0.1h0.1l-0.1,0.1h3v-0.1h7.3l1.9,0.1
			c0.2-0.7,0.3-1.6,0.3-2.5c0-0.9,0.1-1.8,0.1-2.8c0-0.9,0-1.7,0-2.5l-3.5-0.4L54.9,26.7z"/>
		<path class="st2" d="M88.8,11.5l-0.2-0.9h-1.3l0-0.1h-3h-0.8h-3.3v1.7l2.7,0.5l-3.6,13.3h0L79,20.9L76,10.7l-5.8,1.2l1.3,4.1
			L68.7,26h-0.1l-0.2-4.4L66,12.9c0.3-0.2,0.7-0.4,1-0.6c0.6-0.3,0.9-0.6,1.4-0.9l-0.2-0.9h-2.9l0,0.1h-3.4l0-0.1h-4.1v1.7l1.9,0.3
			l6.1,18.3c1-0.1,2.1-0.2,2.9-0.3c0.8-0.1,1.7-0.2,2.4-0.4l0-0.1l1.6-5.3l0.7-3.5l3.1,9.6c1-0.1,2-0.3,2.9-0.4
			c0.8-0.1,1.5-0.2,2.2-0.3l0.2,0.1l5-17.3c0.3-0.1,0.5-0.3,0.8-0.4C88,12.1,88.4,11.8,88.8,11.5z"/>
		<path class="st2" d="M98.7,12.4c0.6-0.3,0.9-0.6,1.4-0.9l-0.2-0.9h-2.4v-0.1h-4.3h-1.9H89v1.7l2.2,0.4v15.3
			c-0.4,0.2-0.8,0.4-1.1,0.6c-0.6,0.3-0.9,0.6-1.4,0.9l0.2,0.9h2.3h0.5h4.2v0.1h4.1v-1.7l-2.6-0.5V13.1
			C97.9,12.8,98.3,12.6,98.7,12.4z"/>
		<path class="st2" d="M123.4,11.5l-0.2-0.9h-2.1l0-0.1h-2.9h-1.3H114v1.7l2.9,0.5v6.7l0.4,3.6l-8.1-12.4h-4.2h-1h-0.5h-2.2v1.7
			l2.2,0.5v15.2c-0.4,0.2-0.8,0.4-1.2,0.6c-0.6,0.3-0.9,0.6-1.4,0.9l0.2,0.9h2.4h0.4h2.3v0.1h4.1v-1.7l-2.6-0.5V22l-0.4-3.6
			l8.3,12.2l5.2-0.4l0.2-17.3c0.3-0.2,0.7-0.3,1-0.5C122.5,12.1,122.9,11.8,123.4,11.5z"/>
	</g>
</g>
</svg>
