<?xml version="1.0" encoding="utf-8"?>
<!-- Generator: Adobe Illustrator 25.4.1, SVG Export Plug-In . SVG Version: 6.00 Build 0)  -->
<svg version="1.1" id="Layer_1" xmlns="http://www.w3.org/2000/svg" xmlns:xlink="http://www.w3.org/1999/xlink" x="0px" y="0px"
	 viewBox="0 0 40 66" style="enable-background:new 0 0 40 66;" xml:space="preserve">
<style type="text/css">
	.st0{fill:#FFFFFF;}
	.st1{fill:none;stroke:#FFFFFF;stroke-width:2;}
</style>
<path class="st0" d="M20.4,17.7c-0.9,0-1.6,0.7-1.6,1.6V27c0,0.9,0.7,1.6,1.6,1.6c0.9,0,1.6-0.7,1.6-1.6v-7.6
	C22,18.4,21.3,17.7,20.4,17.7z"/>
<path class="st1" d="M20,1L20,1c10.5,0,19,8.5,19,19v26c0,10.5-8.5,19-19,19l0,0C9.5,65,1,56.5,1,46V20C1,9.5,9.5,1,20,1z"/>
</svg>
